<svg xmlns="http://www.w3.org/2000/svg" viewBox="0 0 512 512">
  <defs>
    <linearGradient id="bg" x1="0%" x2="100%" y1="0%" y2="100%">
      <stop offset="0%" stop-color="#fff4c9"/>
      <stop offset="100%" stop-color="#ffd6ea"/>
    </linearGradient>
    <linearGradient id="fruit" x1="0%" x2="100%" y1="0%" y2="100%">
      <stop offset="0%" stop-color="#ff8abf"/>
      <stop offset="100%" stop-color="#ff5c9b"/>
    </linearGradient>
  </defs>
  <rect width="512" height="512" rx="128" fill="url(#bg)"/>
  <circle cx="256" cy="282" r="140" fill="url(#fruit)"/>
  <path d="M256 89c54 0 96 36 109 83-47-16-76 6-101 40-30-38-64-55-116-42 13-46 55-81 108-81z" fill="#67c16d"/>
  <path d="M256 109c0-27 16-49 42-61 4 31-8 56-33 76" fill="none" stroke="#4c8f4e" stroke-linecap="round" stroke-width="20"/>
  <g fill="#fff7fb">
    <rect x="168" y="234" width="64" height="64" rx="18"/>
    <rect x="279" y="234" width="64" height="64" rx="18"/>
    <rect x="168" y="345" width="64" height="64" rx="18"/>
    <rect x="279" y="345" width="64" height="64" rx="18"/>
  </g>
</svg>
