<svg xmlns="http://www.w3.org/2000/svg" viewBox="0 0 192 192">
  <defs>
    <linearGradient id="bg" x1="0%" x2="100%" y1="0%" y2="100%">
      <stop offset="0%" stop-color="#fff4c9"/>
      <stop offset="100%" stop-color="#ffd6ea"/>
    </linearGradient>
    <linearGradient id="fruit" x1="0%" x2="100%" y1="0%" y2="100%">
      <stop offset="0%" stop-color="#ff8abf"/>
      <stop offset="100%" stop-color="#ff5c9b"/>
    </linearGradient>
  </defs>
  <rect width="192" height="192" rx="48" fill="url(#bg)"/>
  <circle cx="96" cy="106" r="52" fill="url(#fruit)"/>
  <path d="M96 33c20 0 36 14 40 31-17-6-28 2-37 15-11-14-24-20-43-16 5-17 20-30 40-30z" fill="#67c16d"/>
  <path d="M96 40c0-10 6-18 16-22 1 11-3 21-12 28" fill="none" stroke="#4c8f4e" stroke-linecap="round" stroke-width="8"/>
  <g fill="#fff7fb">
    <rect x="63" y="88" width="24" height="24" rx="8"/>
    <rect x="104" y="88" width="24" height="24" rx="8"/>
    <rect x="63" y="129" width="24" height="24" rx="8"/>
    <rect x="104" y="129" width="24" height="24" rx="8"/>
  </g>
</svg>
